# xmcd
#
# Track frame offsets:
#  150
#  27459
#  46668
#  66138
#  84899
#  107259
#  124587
#  145489
#  168313
#  190222
#  223322
#  244132
#  276562
#  301770
#
# Disc length: 4408 seconds
#
# Revision: 0
# Processed by: cddbd v1.5.1PL0 Copyright (c) Steve Scherf et al.
# Submitted via: Collectorz.com_Music_Collector 6.9
#
DISCID=c311360e
DTITLE=Night Ranger - Live Wishes
DYEAR=1900
DGENRE=
TTITLE0=Seven Wishes
TTITLE1=This Boy Needs To Rock
TTITLE2=Sentimental Street
TTITLE3=Sing Me Away
TTITLE4=Rumours In The Air
TTITLE5=Four In The Morning
TTITLE6=When You Close Your Eyes
TTITLE7=Faces
TTITLE8=Eddie's Comin' Out Tonight
TTITLE9=Night Ranger
TTITLE10=Touch Of Madness
TTITLE11=(You Can Still) Rock In Americ
TTITLE12=Sister Christian
TTITLE13=Don't Tell Me You Love Me
EXTD=
EXTT0=
EXTT1=
EXTT2=
EXTT3=
EXTT4=
EXTT5=
EXTT6=
EXTT7=
EXTT8=
EXTT9=
EXTT10=
EXTT11=
EXTT12=
EXTT13=
PLAYORDER=
